<?xml version="1.0" encoding="UTF-8"?>
<svg version="1.1" xmlns="http://www.w3.org/2000/svg" width="1024" height="1024">
<path d="M0 0 C337.92 0 675.84 0 1024 0 C1024 337.92 1024 675.84 1024 1024 C686.08 1024 348.16 1024 0 1024 C0 686.08 0 348.16 0 0 Z " fill="#11293C" transform="translate(0,0)"/>
<path d="M0 0 C11.240625 -0.0825 22.48125 -0.165 34.0625 -0.25 C37.58043213 -0.28641602 41.09836426 -0.32283203 44.72290039 -0.36035156 C49.09851074 -0.37841797 49.09851074 -0.37841797 51.16233826 -0.3817749 C52.57006424 -0.38782179 53.97777272 -0.40168523 55.38536072 -0.42230225 C73.1762424 -0.66931327 90.65687681 3.11887266 103.97265625 15.80859375 C115.60603547 28.3834025 120.77484679 42.9266699 120.31640625 59.86328125 C119.51854286 74.1680705 112.8317592 87.76626087 103 98 C91.26436674 108.16850773 78.58935611 113.28910189 63.203125 113.2734375 C61.08853642 113.29373149 58.97395313 113.31458237 56.859375 113.3359375 C53.55724609 113.35847428 50.25532715 113.37499053 46.953125 113.38085938 C43.74441436 113.3904548 40.53662593 113.42431735 37.328125 113.4609375 C36.35691711 113.45589203 35.38570923 113.45084656 34.3850708 113.44564819 C25.10423477 113.57693846 16.37087913 115.84766483 9.5 122.375 C8.7059375 123.10460937 7.911875 123.83421875 7.09375 124.5859375 C4.80878687 127.22046589 3.42535406 129.8295009 2 133 C2.76183594 132.40251953 2.76183594 132.40251953 3.5390625 131.79296875 C13.66423358 124 13.66423358 124 19 124 C19 154.36 19 184.72 19 216 C37.80486453 215.96722518 37.80486453 215.96722518 56.609375 215.88867188 C64.28975002 215.84645339 71.96988931 215.80936014 79.65039062 215.80444336 C85.84926138 215.8001349 92.04760244 215.77146149 98.24630737 215.72656822 C100.59989323 215.71367438 102.95354273 215.7092564 105.30715942 215.71384621 C124.24149166 215.74214496 140.79776287 214.5975245 155.20703125 200.90234375 C160.04147186 195.81676337 163.25295571 190.43106493 166 184 C166.35320312 183.20078125 166.70640625 182.4015625 167.0703125 181.578125 C171.36110587 169.67928625 170.32852692 154.59686168 165.54296875 143.08203125 C158.51308437 129.04005967 148.7305082 121.38384788 134.22485352 115.96289062 C130.92527357 114.97768786 128.16017413 114.68792596 124.7265625 114.5859375 C123.57285156 114.54726563 122.41914062 114.50859375 121.23046875 114.46875 C120.04066406 114.4378125 118.85085938 114.406875 117.625 114.375 C115.80548828 114.31699219 115.80548828 114.31699219 113.94921875 114.2578125 C110.96629479 114.16386214 107.98337175 114.07819193 105 114 C107.35065805 111.64116574 109.70307358 109.28697358 112.09765625 106.97265625 C115.26132426 103.89704262 117.77195869 101.4256771 119.875 97.5 C122 95 122 95 123.96875 94.4921875 C139.89377129 93.71661828 155.72991647 102.42603278 167.4375 112.5 C181.04583975 125.77642903 188.83950469 142.8784851 189.29882812 161.83349609 C189.40447388 180.02343137 184.41039227 195.65016241 173 210 C172.54238281 210.62003906 172.08476563 211.24007812 171.61328125 211.87890625 C161.77979469 224.47365837 144.86829436 232.62010202 129.23689079 234.78883171 C124.35545583 235.24965182 119.44562909 235.12867667 114.54711914 235.11352539 C112.68753067 235.11374443 112.68753067 235.11374443 110.79037476 235.1139679 C107.40864148 235.1133926 104.02697004 235.10839405 100.6452477 235.10139394 C97.10451901 235.09512211 93.56378941 235.09455358 90.02305603 235.09336853 C83.32612186 235.09026648 76.6292041 235.08206832 69.93227714 235.07201904 C60.87710135 235.05872738 51.82192103 235.0533489 42.76673794 235.04751682 C28.51114634 235.03812764 14.25558938 235.01820121 0 235 C0 203.65 0 172.3 0 140 C-6.93 140 -13.86 140 -21 140 C-19.09632543 124.7706034 -11.21042541 113.19401872 0.765625 103.83984375 C11.82217044 96.40036818 22.81244488 93.90497148 35.9296875 93.75390625 C37.87891079 93.72097075 39.82812943 93.68775905 41.77734375 93.65429688 C44.82727923 93.60694068 47.87719546 93.56247173 50.92724609 93.52319336 C53.88658507 93.48326691 56.8455554 93.43178203 59.8046875 93.37890625 C61.15818802 93.36628502 61.15818802 93.36628502 62.53903198 93.35340881 C73.40505234 93.14336894 82.62955657 90.28119417 90.75 82.8125 C99.01984918 74.02338122 100.58448867 63.81066576 100.33984375 52.15234375 C99.81015505 42.56739601 95.05528694 34.33355613 88 28 C79.0326231 20.7270956 68.17339677 19.55652882 56.98828125 19.48828125 C56.01644897 19.47164429 55.0446167 19.45500732 54.04333496 19.43786621 C50.46660258 19.38070669 46.88951318 19.34797508 43.3125 19.3125 C31.2778125 19.1578125 31.2778125 19.1578125 19 19 C19 40.78 19 62.56 19 85 C15.7 85.99 12.4 86.98 9 88 C6.64213591 89.28945692 4.3002039 90.61029348 2 92 C1.34 92 0.68 92 0 92 C0 61.64 0 31.28 0 0 Z " fill="#F9F9FA" transform="translate(430,316)"/>
<path d="M0 0 C14.85572673 -0.18546528 29.71127757 -0.32809477 44.56791687 -0.41449738 C51.46674089 -0.45568867 58.36483086 -0.51180958 65.26318359 -0.60351562 C71.92224192 -0.69199805 78.58038079 -0.73829196 85.24005127 -0.75901794 C87.77903232 -0.77378512 90.31797226 -0.8026229 92.85662842 -0.84584045 C96.41704975 -0.90403463 99.97433486 -0.91190787 103.53515625 -0.90820312 C104.58172897 -0.93696533 105.6283017 -0.96572754 106.70658875 -0.99536133 C112.44007885 -0.93093114 115.43268628 -0.20292823 119.58569336 3.88928223 C122.08353469 6.74654616 124.45123541 9.67665083 126.5 12.875 C126.9846875 13.61492187 127.469375 14.35484375 127.96875 15.1171875 C129 17 129 17 129 19 C86.43 19 43.86 19 0 19 C0 12.73 0 6.46 0 0 Z " fill="#F9FAFB" transform="translate(459,443)"/>
<path d="M0 0 C5.36028099 3.16824555 10.83692176 8.13843839 12.95703125 14.15234375 C14.36781601 22.01438699 14.79406153 30.6358945 10.625 37.68359375 C10.20734375 38.24820313 9.7896875 38.8128125 9.359375 39.39453125 C8.76382813 40.22082031 8.16828125 41.04710937 7.5546875 41.8984375 C2.93141366 47.15514922 -3.38739691 49.92727495 -10.2578125 50.9140625 C-19.61332284 51.18567409 -25.46830833 49.43403641 -32.390625 43.26953125 C-37.55566624 37.71445257 -39.81414499 31.36213462 -40.140625 23.83203125 C-39.85142029 16.77144732 -37.1784717 10.08129895 -32.3671875 4.8125 C-22.54508614 -3.2540674 -11.58710813 -5.22157898 0 0 Z " fill="#F4F6F7" transform="translate(410.640625,612.60546875)"/>
<path d="M0 0 C4.2075 -0.12375 8.415 -0.2475 12.75 -0.375 C14.7005127 -0.45693604 14.7005127 -0.45693604 16.69042969 -0.54052734 C26.05194754 -0.67208086 33.99812723 1.44865052 41.06542969 7.87939453 C47.00326929 14.28757647 47.54224869 20.82827737 47.30859375 29.328125 C46.7604773 35.85001696 44.54870509 39.77517598 39.875 44.25 C31.29544745 50.75433251 22.88400979 51.55220591 12.375 51.25 C8.29125 51.1675 4.2075 51.085 0 51 C0 34.17 0 17.34 0 0 Z " fill="#F2F5F7" transform="translate(500,611)"/>
<path d="M0 0 C4.08375 -0.0825 8.1675 -0.165 12.375 -0.25 C14.27451416 -0.30462402 14.27451416 -0.30462402 16.21240234 -0.36035156 C25.95555702 -0.45478264 34.30491171 1.44327285 41.52734375 8.32421875 C46.74769741 14.26462119 47.66511935 19.91677764 47.375 27.75 C46.44851219 35.77956101 43.60541753 41.17815516 37.5859375 46.52734375 C25.40730661 53.46290847 14.21242048 51 0 51 C0 34.17 0 17.34 0 0 Z " fill="#F0F7F8" transform="translate(758,611)"/>
<path d="M0 0 C6.7134375 -0.0928125 6.7134375 -0.0928125 13.5625 -0.1875 C14.96056885 -0.21481201 16.3586377 -0.24212402 17.79907227 -0.27026367 C25.63003608 -0.32267674 31.27497556 -0.23488964 37.375 5.0625 C40.10300741 8.31512422 40.27642064 10.72904361 40.22265625 14.96875 C39.75012505 19.27956097 37.10998014 22.18620845 34 25 C34.763125 25.433125 35.52625 25.86625 36.3125 26.3125 C41.58577749 29.62362772 41.58577749 29.62362772 42.6171875 33.05078125 C43.21036326 38.25455044 43.09639029 41.51557269 40 46 C35.16310022 50.5144398 30.1847097 51.24843382 23.73046875 51.1953125 C22.48418701 51.19031738 21.23790527 51.18532227 19.95385742 51.18017578 C17.5945105 51.15286377 17.5945105 51.15286377 15.1875 51.125 C7.6696875 51.063125 7.6696875 51.063125 0 51 C0 34.17 0 17.34 0 0 Z " fill="#F6F6F8" transform="translate(215,611)"/>
<path d="M0 0 C4.640625 -0.061875 9.28125 -0.12375 14.0625 -0.1875 C16.23791382 -0.22846802 16.23791382 -0.22846802 18.45727539 -0.27026367 C26.25792636 -0.32064637 31.49427042 -0.08611615 37.99609375 4.3671875 C41.63013004 8.16864552 42.46998675 11.24342969 42.6875 16.5 C42.44785399 21.46409596 41.73063851 24.77451916 38.58203125 28.6328125 C36.54665847 30.39177663 34.33445082 31.67387499 32 33 C32.36351562 33.50974365 32.72703125 34.0194873 33.1015625 34.54467773 C34.73680361 36.84056674 36.36844427 39.13899074 38 41.4375 C38.57234375 42.23994141 39.1446875 43.04238281 39.734375 43.86914062 C40.27578125 44.63291016 40.8171875 45.39667969 41.375 46.18359375 C41.87773438 46.89056396 42.38046875 47.59753418 42.8984375 48.32592773 C44 50 44 50 44 51 C39.66141877 52.10772287 36.30768215 52.3295921 32 51 C28.93663195 47.99608733 26.73176852 44.36848092 24.38867188 40.796875 C21.46344313 36.3958793 21.46344313 36.3958793 17.0234375 33.71484375 C13.99936077 33.39074526 13.99936077 33.39074526 10 34 C10 39.61 10 45.22 10 51 C6.7 51 3.4 51 0 51 C0 34.17 0 17.34 0 0 Z " fill="#EFF6F6" transform="translate(702,611)"/>
<path d="M0 0 C1.07185547 -0.02449219 2.14371094 -0.04898438 3.24804688 -0.07421875 C11.60807549 -0.10527768 14.74196195 1.34962089 20.875 6.9375 C24.63957552 11.13231272 24.40061847 15.25694761 24.34375 20.65234375 C23.72492671 26.64289703 19.36076429 30.51758333 15.0625 34.375 C10.2187941 35.98956863 5.25989017 35.60115798 0.1875 35.625 C-1.44638672 35.6559375 -1.44638672 35.6559375 -3.11328125 35.6875 C-4.16644531 35.69265625 -5.21960938 35.6978125 -6.3046875 35.703125 C-7.26487793 35.7124707 -8.22506836 35.72181641 -9.21435547 35.73144531 C-14.26126427 35.07083147 -18.25998057 31.75434218 -21.9375 28.375 C-24.51328774 23.13398744 -24.49995587 18.10339673 -23.9375 12.375 C-22.6875 9.5 -22.6875 9.5 -20.9375 7.375 C-20.31875 6.488125 -19.7 5.60125 -19.0625 4.6875 C-13.94420969 -0.88240417 -7.02322371 0.00841609 0 0 Z " fill="#87B2B5" transform="translate(967.9375,956.625)"/>
<path d="M0 0 C3.3 0 6.6 0 10 0 C15.33506088 10.42270122 20.32243837 20.95012295 25.01220703 31.6784668 C26.02303564 33.99018136 27.04039677 36.2989444 28.05859375 38.60742188 C28.70609918 40.08056659 29.35324919 41.55386758 30 43.02734375 C30.30301025 43.71569809 30.60602051 44.40405243 30.91821289 45.11326599 C33 49.88363349 33 49.88363349 33 51 C29.37 51 25.74 51 22 51 C20.68 47.7 19.36 44.4 18 41 C9.75 41 1.5 41 -7 41 C-8.98 45.95 -8.98 45.95 -11 51 C-14.3 51 -17.6 51 -21 51 C-18.47324513 42.80148686 -15.07495576 35.02839663 -11.625 27.1875 C-10.49061112 24.59834449 -9.3583567 22.00825936 -8.2265625 19.41796875 C-7.95322083 18.79332733 -7.67987915 18.16868591 -7.39825439 17.52511597 C-4.86080037 11.71283217 -2.41421662 5.86436907 0 0 Z " fill="#F3F8F8" transform="translate(658,611)"/>
<path d="M0 0 C2.97 0 5.94 0 9 0 C9 16.83 9 33.66 9 51 C1 51 1 51 -0.83520508 49.84521484 C-1.22603271 49.30590332 -1.61686035 48.7665918 -2.01953125 48.2109375 C-2.4791626 47.60548096 -2.93879395 47.00002441 -3.41235352 46.3762207 C-3.87440186 45.71581787 -4.3364502 45.05541504 -4.8125 44.375 C-5.83842741 43.00121675 -6.86447196 41.62752097 -7.890625 40.25390625 C-8.40302734 39.5489502 -8.91542969 38.84399414 -9.44335938 38.11767578 C-11.89637085 34.7805645 -14.48442184 31.55323941 -17.0625 28.3125 C-19.74747959 24.90289596 -22.39577511 21.47229985 -25 18 C-25.33 28.89 -25.66 39.78 -26 51 C-28.97 51 -31.94 51 -35 51 C-35 34.5 -35 18 -35 1 C-26 1 -26 1 -23.9765625 2.2578125 C-23.53054688 2.87398437 -23.08453125 3.49015625 -22.625 4.125 C-22.07070313 4.85074219 -21.51640625 5.57648437 -20.9453125 6.32421875 C-20.30335938 7.20722656 -19.66140625 8.09023438 -19 9 C-18.12739996 10.11461286 -17.24941083 11.22501967 -16.3671875 12.33203125 C-13.55143348 15.86780419 -10.77317756 19.43067668 -8 23 C-5.69 25.97 -3.38 28.94 -1 32 C-0.67 21.44 -0.34 10.88 0 0 Z " fill="#F8FBFB" transform="translate(474,611)"/>
<path d="M0 0 C12.54 0 25.08 0 38 0 C38 2.97 38 5.94 38 9 C28.76 9 19.52 9 10 9 C10 12.96 10 16.92 10 21 C18.25 21 26.5 21 35 21 C35 23.97 35 26.94 35 30 C26.42 30 17.84 30 9 30 C9 33.96 9 37.92 9 42 C18.9 42 28.8 42 39 42 C39 44.97 39 47.94 39 51 C26.13 51 13.26 51 0 51 C0 34.17 0 17.34 0 0 Z " fill="#F2F3F5" transform="translate(271,611)"/>
<path d="M0 0 C3.1875 2.125 3.1875 2.125 5 4 C5 6 5 6 2.5 8.625 C1.675 9.40875 0.85 10.1925 0 11 C-2.27868586 9.86065707 -4.4543689 8.71872402 -6.625 7.375 C-11.18424114 5.51753139 -15.13940785 5.28753535 -20 6 C-24.98669007 8.49334503 -28.49675474 11.99350949 -31 17 C-31.78878874 23.69343584 -31.47779761 28.89704922 -27.40234375 34.40625 C-24.65451537 37.52913016 -22.70047278 38.78844512 -18.51953125 39.30859375 C-12.66994462 39.5748508 -8.6641903 38.92492923 -3.75390625 35.6796875 C-2 35 -2 35 0.03515625 35.6328125 C2.23739664 37.16518653 3.51884333 38.778265 5 41 C3.7764437 41.96548612 2.54585189 42.92205898 1.3125 43.875 C0.62800781 44.40867187 -0.05648437 44.94234375 -0.76171875 45.4921875 C-7.143967 49.79157288 -13.52499559 49.68745675 -21 49 C-28.15203732 47.34800798 -33.68165682 43.96778991 -38 38 C-42.04798059 31.06918456 -43.19123833 23.92068996 -42 16 C-39.4582906 8.01498373 -34.99441496 2.97618768 -27.90234375 -1.25 C-18.28517773 -6.13490972 -9.48971881 -4.4854941 0 0 Z " fill="#F4F8F9" transform="translate(624,614)"/>
<path d="M0 0 C5.01951583 2.22877933 8.85801886 5.12315966 10.87109375 10.3515625 C11.76605526 16.76258487 11.81040698 22.96783442 7.87109375 28.3515625 C3.65349298 32.56916327 0.04040818 34.48947805 -5.94140625 34.6640625 C-10.83073913 34.58589003 -13.45413866 33.76995095 -17.12890625 30.3515625 C-21.38368725 25.4534857 -22.86327646 21.15677063 -22.4765625 14.671875 C-21.4578661 7.87293501 -17.40798455 4.25680838 -12.12890625 0.3515625 C-8.29603691 -1.56487217 -4.00921508 -1.22115542 0 0 Z " fill="#152434" transform="translate(403.12890625,619.6484375)"/>
<path d="M0 0 C4.47870656 2.15937638 7.18198188 4.92952939 10 9 C11.70108067 14.10324201 11.56521247 18.31873434 9.3125 23.1875 C7.13597495 27.15600505 4.588481 30.20519671 0.1171875 31.578125 C-5.11234102 32.62017127 -9.50750714 32.76032655 -14.3125 30.3125 C-17.93741138 27.19339021 -21.63140993 23.83287799 -22.2734375 18.8984375 C-22.50488764 13.14779179 -21.74976759 9.50837674 -18.58203125 4.69140625 C-13.3046242 -0.95085857 -7.26815421 -0.88756293 0 0 Z " fill="#EBF5F7" transform="translate(654,684)"/>
<path d="M0 0 C5.28097404 1.79353835 7.79895251 4.60999202 11 9 C12.67561557 14.02684672 12.57826653 18.28540388 10.4375 23.125 C8.09882698 27.29888171 5.49978669 30.20504832 1 32 C-4.34236051 32.87745165 -8.55330029 32.71019804 -13.4375 30.3125 C-17.45703235 26.68511715 -20.59207476 23.51083198 -21.23828125 17.94921875 C-21.42001793 12.41103242 -20.74513006 9.35244845 -17 5 C-11.29547523 -0.02541467 -7.4679183 -0.62136762 0 0 Z " fill="#F0F4F6" transform="translate(374,684)"/>
<path d="M0 0 C4.27744742 1.88143364 7.03497482 4.11969368 9.08203125 8.359375 C10.62788008 13.31775803 10.25947991 17.74431497 8.578125 22.6015625 C5.7283303 26.7812614 2.59719529 29.72020574 -2.296875 31.3515625 C-7.78182863 32.12120963 -12.09412884 32.02004871 -16.734375 28.7890625 C-21.3075477 24.85336236 -22.98869591 20.81699523 -23.734375 14.8515625 C-23.03164618 9.22973191 -20.84502985 5.75227403 -16.671875 1.9765625 C-11.53127074 -1.54069305 -5.98764496 -1.69038956 0 0 Z " fill="#EEF4F6" transform="translate(489.296875,684.6484375)"/>
<path d="M0 0 C4.01299642 -1.09861499 7.02486638 -1.33672629 11 0 C15.38942887 4.49702737 18.10973821 10.48338215 21 16 C22.8600767 19.67830001 22.8600767 19.67830001 26 22 C26.22558594 21.34515625 26.45117188 20.6903125 26.68359375 20.015625 C28.43424041 16.00524155 30.71849336 12.43675443 33.0625 8.75 C33.75182617 7.65171875 33.75182617 7.65171875 34.45507812 6.53125 C37.84527726 1.15472274 37.84527726 1.15472274 39 0 C40.68608966 -0.07205511 42.37500659 -0.08386068 44.0625 -0.0625 C44.98160156 -0.05347656 45.90070313 -0.04445313 46.84765625 -0.03515625 C47.55792969 -0.02355469 48.26820313 -0.01195312 49 0 C47.73347103 3.37617578 46.28701624 6.35595447 44.35546875 9.3984375 C43.84306641 10.20796875 43.33066406 11.0175 42.80273438 11.8515625 C42.26970703 12.68429687 41.73667969 13.51703125 41.1875 14.375 C40.66607422 15.2 40.14464844 16.025 39.60742188 16.875 C39.09115234 17.68710937 38.57488281 18.49921875 38.04296875 19.3359375 C37.53451416 20.13668701 37.02605957 20.93743652 36.50219727 21.76245117 C35.15293791 23.77219633 33.70061858 25.58349894 32.1640625 27.44921875 C29.04994989 31.74152586 29.22081388 36.2960574 29.1875 41.4375 C29.16236328 42.35982422 29.13722656 43.28214844 29.11132812 44.23242188 C29.05289787 46.48782972 29.02347821 48.74395758 29 51 C26.03 51 23.06 51 20 51 C20.10183594 49.82308594 20.20367187 48.64617188 20.30859375 47.43359375 C20.9909983 30.93735269 13.5309385 20.86122102 4 8 C0 2.39630025 0 2.39630025 0 0 Z " fill="#F5F7F9" transform="translate(317,611)"/>
<path d="M0 0 C17.82712766 0 17.82712766 0 23 5 C26.48800759 8.66240797 27.28448195 11.51425945 27.5 16.4375 C27.26565561 21.82742097 26.4260757 24.80305727 23 29 C16.24402663 34.83549371 8.93613232 33 0 33 C0 22.11 0 11.22 0 0 Z " fill="#172C3B" transform="translate(510,620)"/>
<path d="M0 0 C17.952 0 17.952 0 22.48828125 4.46484375 C26.67796489 9.29183138 27.30019782 12.26125135 27.2109375 18.46484375 C26.78925078 23.53289345 24.68302433 26.58896805 20.9375 29.8125 C13.3125154 35.49068002 13.97554885 33 0 33 C0 22.11 0 11.22 0 0 Z " fill="#19424D" transform="translate(768,620)"/>
<path d="M0 0 C3.031875 -0.061875 6.06375 -0.12375 9.1875 -0.1875 C10.60712036 -0.22846802 10.60712036 -0.22846802 12.05541992 -0.27026367 C16.84936401 -0.3175874 20.15522761 -0.20273273 24 3 C26.45980837 6.68971256 26.69177647 9.71598668 26 14 C24.1875 17 24.1875 17 22 19 C21.01 19 20.02 19 19 19 C19.75796875 20.04800781 19.75796875 20.04800781 20.53125 21.1171875 C21.50578125 22.48230469 21.50578125 22.48230469 22.5 23.875 C23.1496875 24.77992188 23.799375 25.68484375 24.46875 26.6171875 C26 29 26 29 26 31 C23.4375 31.5625 23.4375 31.5625 20 31 C18.2890625 29.03125 18.2890625 29.03125 16.5625 26.5625 C14.32144027 23.21537609 14.32144027 23.21537609 11 21.1796875 C8.8812813 20.86753738 8.8812813 20.86753738 6 21 C6 24.3 6 27.6 6 31 C4.02 31 2.04 31 0 31 C0 20.77 0 10.54 0 0 Z " fill="#ECF0F3" transform="translate(396,684)"/>
<path d="M0 0 C3.75829627 2.42201315 6.08569793 4.49471047 7.453125 8.85546875 C8.27616962 13.28314399 7.99886445 16.24836002 5.75 20.1875 C3.22722852 23.66670682 0.99037381 25.50179449 -3.1875 26.8125 C-9.65870419 27.73695774 -9.65870419 27.73695774 -13.18359375 25.60546875 C-16.97202867 22.49438394 -19.64412283 19.63910626 -20.59375 14.69921875 C-20.78781264 10.14683268 -20.39633144 7.44651876 -17.4375 3.875 C-12.41177985 -1.49338289 -6.98552959 -2.6024522 0 0 Z " fill="#F7F9F9" transform="translate(572.1875,486.1875)"/>
<path d="M0 0 C2.84625 -0.0825 5.6925 -0.165 8.625 -0.25 C9.51010254 -0.28641602 10.39520508 -0.32283203 11.30712891 -0.36035156 C16.68827905 -0.43544301 19.75397618 0.38351283 24 4 C25.60233719 7.20467439 25.49196274 10.52302007 25 14 C23.1875 17 23.1875 17 21 19 C20.01 19 19.02 19 18 19 C18.75796875 20.04800781 18.75796875 20.04800781 19.53125 21.1171875 C20.50578125 22.48230469 20.50578125 22.48230469 21.5 23.875 C22.1496875 24.77992188 22.799375 25.68484375 23.46875 26.6171875 C25 29 25 29 25 31 C22.4375 31.5625 22.4375 31.5625 19 31 C17.2890625 29.03125 17.2890625 29.03125 15.5625 26.5625 C13.32144027 23.21537609 13.32144027 23.21537609 10 21.1796875 C7.8812813 20.86753738 7.8812813 20.86753738 5 21 C5 24.3 5 27.6 5 31 C3.35 31 1.7 31 0 31 C0 20.77 0 10.54 0 0 Z " fill="#F0F6F7" transform="translate(510,684)"/>
<path d="M0 0 C18.78571429 0 18.78571429 0 23.875 4.75 C25.50340357 8.00680714 25.37833086 10.40585687 25 14 C23.63083757 17.34684149 22.38904036 18.72482511 19.4375 20.8125 C14.76854293 22.42541244 10.92851899 22.19980482 6 22 C6 25.3 6 28.6 6 32 C4.02 32 2.04 32 0 32 C0 21.44 0 10.88 0 0 Z " fill="#EAEFF1" transform="translate(433,684)"/>
<path d="M0 0 C1.98 0 3.96 0 6 0 C8.34375 2.34375 8.34375 2.34375 10.5 5.5 C11.2115625 6.5209375 11.923125 7.541875 12.65625 8.59375 C13.4296875 9.7178125 14.203125 10.841875 15 12 C16.98 14.64 18.96 17.28 21 20 C21.33 13.4 21.66 6.8 22 0 C23.98 0 25.96 0 28 0 C28 10.56 28 21.12 28 32 C22 32 22 32 20.26489258 30.59472656 C19.81267334 29.94987305 19.3604541 29.30501953 18.89453125 28.640625 C18.38599609 27.93679688 17.87746094 27.23296875 17.35351562 26.5078125 C16.84498047 25.76273438 16.33644531 25.01765625 15.8125 24.25 C15.29236328 23.52039063 14.77222656 22.79078125 14.23632812 22.0390625 C13.26419248 20.6733547 12.30008731 19.30186748 11.34692383 17.92285156 C9.94189753 15.91705365 8.46936609 13.95915478 7 12 C6.67 18.6 6.34 25.2 6 32 C4.02 32 2.04 32 0 32 C0 21.44 0 10.88 0 0 Z " fill="#E7F1F3" transform="translate(675,684)"/>
<path d="M0 0 C1.4540625 0.0309375 1.4540625 0.0309375 2.9375 0.0625 C4.79121245 4.31564753 6.64256408 8.56981157 8.49169922 12.82495117 C9.12157841 14.27347821 9.75211103 15.72172129 10.38330078 17.16967773 C11.28848945 19.24649601 12.19135192 21.3243117 13.09375 23.40234375 C13.37810913 24.05339584 13.66246826 24.70444794 13.95544434 25.37522888 C15.9375 29.94862829 15.9375 29.94862829 15.9375 31.0625 C13.6275 31.0625 11.3175 31.0625 8.9375 31.0625 C8.6075 29.0825 8.2775 27.1025 7.9375 25.0625 C2.3275 25.0625 -3.2825 25.0625 -9.0625 25.0625 C-9.7225 27.0425 -10.3825 29.0225 -11.0625 31.0625 C-12.7125 31.0625 -14.3625 31.0625 -16.0625 31.0625 C-15.42222461 27.11775247 -14.20935536 23.7902242 -12.59375 20.140625 C-12.10519531 19.03332031 -11.61664062 17.92601562 -11.11328125 16.78515625 C-10.60152344 15.63917969 -10.08976563 14.49320313 -9.5625 13.3125 C-9.05074219 12.15105469 -8.53898438 10.98960937 -8.01171875 9.79296875 C-3.7042522 0.07559698 -3.7042522 0.07559698 0 0 Z " fill="#ECF4F5" transform="translate(560.0625,683.9375)"/>
<path d="M0 0 C1.875 1.5 1.875 1.5 3 3 C2.360625 3.763125 1.72125 4.52625 1.0625 5.3125 C-2.17372662 9.52940136 -2.42796493 12.77882781 -2 18 C-0.88725394 20.80209689 0.50397422 23.38646099 2 26 C2.33 26.66 2.66 27.32 3 28 C-0.52339198 29.76169599 -4.16400159 29.66440495 -8 29 C-11.71877105 26.916929 -14.24220974 24.25200131 -16.4375 20.625 C-17.39327873 16.16469928 -18.03788352 12.24058117 -16.08984375 8.03515625 C-12.21507648 2.14202146 -7.24152095 -0.96553613 0 0 Z " fill="#F4F7F8" transform="translate(552,484)"/>
<path d="M0 0 C3.0220794 1.74450506 5.41651082 3.83302164 7 7 C7.40710593 11.23390162 7.25575965 13.51588352 5.25 17.3125 C2.26087444 20.88284442 0.66690646 21.74634032 -3.875 22.4375 C-8.2682371 21.82244681 -9.84565969 20.08098355 -13 17 C-14.59561887 13.80876226 -14.3799142 10.47254909 -14 7 C-11.1204334 0.69237793 -6.79877962 -1.29561649 0 0 Z " fill="#1C404A" transform="translate(652,689)"/>
<path d="M0 0 C2.97672584 1.77280561 5.42804007 3.85608015 7 7 C7.37766377 12.00404498 7.11200434 14.99885156 4 19 C1.52738476 21.56092293 0.19315151 21.97138496 -3.375 22.5 C-8.18061965 21.83715591 -9.64052442 20.43946309 -13 17 C-14.21762731 13.34711807 -14.39075851 10.84245864 -14 7 C-10.4152314 0.994175 -6.9020188 -0.69020188 0 0 Z " fill="#192F3B" transform="translate(486,689)"/>
<path d="M0 0 C2.6258382 1.78870171 3.34201385 3.11189509 5 6 C5.70320446 10.37549441 5.32267751 12.38921757 3.25 16.3125 C0.26087444 19.88284442 -1.33309354 20.74634032 -5.875 21.4375 C-10.2682371 20.82244681 -11.84565969 19.08098355 -15 16 C-16.61429923 12.77140153 -16.59570657 9.49006347 -16 6 C-12.03071583 -0.91662578 -7.35619914 -2.04197942 0 0 Z " fill="#192837" transform="translate(375,690)"/>
<path d="M0 0 C0.763125 0.495 1.52625 0.99 2.3125 1.5 C2.3125 2.82 2.3125 4.14 2.3125 5.5 C1.3225 6.16 0.3325 6.82 -0.6875 7.5 C-1.368125 7.005 -2.04875 6.51 -2.75 6 C-6.43538284 4.11810238 -8.59596373 3.91549482 -12.6875 4.5 C-15.83108251 6.2260029 -15.83108251 6.2260029 -17.6875 9.5 C-18.71620363 14.60170093 -18.51283781 18.24948817 -15.625 22.625 C-11.91784524 24.991269 -10.02068323 25.10816607 -5.6875 24.5 C-2.33588754 23.11785878 -2.33588754 23.11785878 0.3125 21.5 C1.8125 22.875 1.8125 22.875 3.3125 24.5 C3.3125 25.16 3.3125 25.82 3.3125 26.5 C-1.81218561 30.14422087 -5.72596986 31.19563577 -12.03125 30.953125 C-17.25206169 30.06251595 -20.32236668 27.40281554 -23.34375 23.19140625 C-25.70940427 18.4532208 -25.41904529 13.66183826 -24.6875 8.5 C-23.05962347 4.67482511 -20.5921399 2.32481873 -17.5625 -0.4375 C-11.71055256 -2.60017623 -5.73267258 -2.33193461 0 0 Z " fill="#EFF2F5" transform="translate(341.6875,685.5)"/>
<path d="M0 0 C18.48 0 36.96 0 56 0 C56 1.98 56 3.96 56 6 C37.52 6 19.04 6 0 6 C0 4.02 0 2.04 0 0 Z " fill="#F6F8FA" transform="translate(459,472)"/>
<path d="M0 0 C2.91765891 -0.10806144 5.83131125 -0.18732877 8.75 -0.25 C9.9875 -0.30027344 9.9875 -0.30027344 11.25 -0.3515625 C17.35190878 -0.44998038 17.35190878 -0.44998038 20.54296875 1.765625 C22.05783645 4.0886929 22.56785892 5.25623334 22.5625 8 C22.58441406 8.66 22.60632813 9.32 22.62890625 10 C21.59479201 13.28861173 19.94039193 14.27842338 17 16 C14.04064217 16.46432609 11.17348787 16.38015203 8.1875 16.25 C7.00510742 16.22292969 7.00510742 16.22292969 5.79882812 16.1953125 C3.86535739 16.14844048 1.93251715 16.0767041 0 16 C0 10.72 0 5.44 0 0 Z " fill="#183C45" transform="translate(712,620)"/>
<path d="M0 0 C2.89640118 -0.08120751 5.79050912 -0.14059421 8.6875 -0.1875 C9.50412109 -0.21263672 10.32074219 -0.23777344 11.16210938 -0.26367188 C15.97545043 -0.32213351 19.05803722 -0.08670459 23 3 C23.33 3.33 23.66 3.66 24 4 C23.875 7.375 23.875 7.375 23 11 C18.64121794 14.78911945 14.14068439 14.3553565 8.6875 14.1875 C7.85154297 14.17396484 7.01558594 14.16042969 6.15429688 14.14648438 C4.10258502 14.11131217 2.05120725 14.05751048 0 14 C0 9.38 0 4.76 0 0 Z " fill="#1F2536" transform="translate(224,640)"/>
<path d="M0 0 C8.58 0 17.16 0 26 0 C26 1.65 26 3.3 26 5 C22.7 5 19.4 5 16 5 C16 13.58 16 22.16 16 31 C14.35 31 12.7 31 11 31 C11 22.75 11 14.5 11 6 C7.37 6 3.74 6 0 6 C0 4.02 0 2.04 0 0 Z " fill="#EBF3F4" transform="translate(578,684)"/>
<path d="M0 0 C2.77141717 -0.08089542 5.54047819 -0.14044062 8.3125 -0.1875 C9.09818359 -0.21263672 9.88386719 -0.23777344 10.69335938 -0.26367188 C11.45068359 -0.27333984 12.20800781 -0.28300781 12.98828125 -0.29296875 C14.03302612 -0.31653442 14.03302612 -0.31653442 15.09887695 -0.34057617 C17.60672777 0.10869208 18.46857107 0.99763252 20 3 C20.4375 6 20.4375 6 20 9 C17.45039165 11.82631003 15.95612428 12.00330389 12.109375 12.29296875 C10.65595991 12.27314945 9.20268833 12.23754845 7.75 12.1875 C6.63238281 12.16719727 6.63238281 12.16719727 5.4921875 12.14648438 C3.66114584 12.11127204 1.83047831 12.05746851 0 12 C0 8.04 0 4.08 0 0 Z " fill="#12182A" transform="translate(225,620)"/>
<path d="M0 0 C1.98 0 3.96 0 6 0 C6 10.56 6 21.12 6 32 C4.02 32 2.04 32 0 32 C0 21.44 0 10.88 0 0 Z " fill="#E3EDEF" transform="translate(615,684)"/>
<path d="M0 0 C2.54164663 1.27082331 2.6788465 2.18554107 3.7265625 4.78125 C4.0359375 5.54050781 4.3453125 6.29976562 4.6640625 7.08203125 C4.98117187 7.87996094 5.29828125 8.67789063 5.625 9.5 C5.94984375 10.29792969 6.2746875 11.09585938 6.609375 11.91796875 C9 17.83426339 9 17.83426339 9 19 C3.39 19 -2.22 19 -8 19 C-6.576875 15.1328125 -6.576875 15.1328125 -5.125 11.1875 C-4.82996582 10.37949951 -4.53493164 9.57149902 -4.23095703 8.73901367 C-3.99231934 8.09681885 -3.75368164 7.45462402 -3.5078125 6.79296875 C-3.14647217 5.81106567 -3.14647217 5.81106567 -2.77783203 4.80932617 C-2 3 -2 3 0 0 Z " fill="#1E3842" transform="translate(663,623)"/>
<path d="M0 0 C10.500178 -0.37059452 10.500178 -0.37059452 12.828125 1.35546875 C14 3 14 3 14.4375 5.5 C14 8 14 8 12.30078125 9.64453125 C9.54127939 11.27024797 7.92349359 11.31276948 4.75 11.1875 C3.1825 11.125625 1.615 11.06375 0 11 C0 7.37 0 3.74 0 0 Z " fill="#23323E" transform="translate(402,689)"/>
<path d="M0 0 C10.500178 -0.37059452 10.500178 -0.37059452 12.828125 1.35546875 C14 3 14 3 14.4375 5.5 C14 8 14 8 12.30078125 9.64453125 C9.54127939 11.27024797 7.92349359 11.31276948 4.75 11.1875 C3.1825 11.125625 1.615 11.06375 0 11 C0 7.37 0 3.74 0 0 Z " fill="#283C46" transform="translate(515,689)"/>
<path d="M0 0 C8.3984375 -0.29296875 8.3984375 -0.29296875 11 0 C13 3 13 3 12.8125 6.0625 C12 9 12 9 9 11 C5.97670744 11.2610788 3.04123758 11.08815181 0 11 C0 7.37 0 3.74 0 0 Z " fill="#192C39" transform="translate(439,690)"/>
<path d="M0 0 C8.70375 -0.04125 17.4075 -0.0825 26.375 -0.125 C29.12376465 -0.14320801 31.8725293 -0.16141602 34.70458984 -0.18017578 C36.8733704 -0.18601475 39.04215315 -0.19111171 41.2109375 -0.1953125 C42.91213745 -0.2106604 42.91213745 -0.2106604 44.64770508 -0.22631836 C46.26140991 -0.22668091 46.26140991 -0.22668091 47.90771484 -0.22705078 C48.84481293 -0.231492 49.78191101 -0.23593323 50.74740601 -0.24050903 C53 0 53 0 55 2 C54.35076065 1.99777939 53.7015213 1.99555878 53.03260803 1.99327087 C46.30112252 1.97121998 39.56964719 1.95609423 32.83813477 1.94506836 C30.32283105 1.94002637 27.80753028 1.93319297 25.29223633 1.92456055 C21.68570225 1.91248906 18.07920677 1.90677051 14.47265625 1.90234375 C13.34038101 1.89718246 12.20810577 1.89202118 11.04151917 1.88670349 C10.00051559 1.88662796 8.95951202 1.88655243 7.88696289 1.88647461 C6.96540909 1.884254 6.04385529 1.88203339 5.09437561 1.87974548 C3.01191638 1.7662802 3.01191638 1.7662802 2 3 C1.92327484 5.78435602 1.90936657 8.54418998 1.9375 11.328125 C1.94605647 13.08732051 1.9545163 14.8465165 1.96289062 16.60571289 C1.96909424 17.52917511 1.97529785 18.45263733 1.98168945 19.40408325 C2.07965629 34.63057854 2.05464333 49.80183627 1 65 C0.67 65 0.34 65 0 65 C0 43.55 0 22.1 0 0 Z " fill="#090C1D" transform="translate(450,336)"/>
<path d="M0 0 C2 2 2 2 2.1953125 4.6015625 C2.17210937 5.59929688 2.14890625 6.59703125 2.125 7.625 C2.10695313 8.62789062 2.08890625 9.63078125 2.0703125 10.6640625 C2.03550781 11.82035156 2.03550781 11.82035156 2 13 C0.37536158 13.05395478 -1.24978541 13.09277195 -2.875 13.125 C-3.77992188 13.14820313 -4.68484375 13.17140625 -5.6171875 13.1953125 C-8 13 -8 13 -10 11 C-9.44444444 6.44444444 -9.44444444 6.44444444 -8 5 C-5.66702567 4.95907063 -3.33294775 4.95758277 -1 5 C-1 4.34 -1 3.68 -1 3 C-3.31 3.33 -5.62 3.66 -8 4 C-8.33 3.01 -8.66 2.02 -9 1 C-5.98675805 -0.50662097 -3.31713623 -0.17770373 0 0 Z " fill="#237077" transform="translate(968,970)"/>
<path d="M0 0 C3.86248624 3.34316036 4.54212374 7.20983513 6 12 C2.37 12 -1.26 12 -5 12 C-2.25 3.375 -2.25 3.375 0 0 Z " fill="#334851" transform="translate(559,692)"/>
<path d="M0 0 C0.66 0 1.32 0 2 0 C2.75 1.6875 2.75 1.6875 3 4 C2.360625 4.721875 1.72125 5.44375 1.0625 6.1875 C-1.45007098 9.61373316 -1.57295755 11.56018101 -1.40625 15.70703125 C-0.75022762 19.40977296 0.89553428 21.90906597 3 25 C2.01 25.33 1.02 25.66 0 26 C-3.85010732 20.41113454 -5.57295018 16.8754021 -5 10 C-3.86834694 7.48978776 -2.48374429 5.3380213 -1 3 C-0.67 2.01 -0.34 1.02 0 0 Z " fill="#2E3740" transform="translate(554,485)"/>
<path d="M0 0 C2.50357861 0.8345262 4.66785852 1.79371992 7 3 C6.67 4.65 6.34 6.3 6 8 C3.125 8.125 3.125 8.125 0 8 C-0.66 7.34 -1.32 6.68 -2 6 C-1.44444444 1.44444444 -1.44444444 1.44444444 0 0 Z " fill="#418489" transform="translate(960,975)"/>
<path d="M0 0 C0.66 0 1.32 0 2 0 C2 6.93 2 13.86 2 21 C-3 16 -3 16 -4 14 C-3.01 14 -2.02 14 -1 14 C-0.67 9.38 -0.34 4.76 0 0 Z " fill="#40575D" transform="translate(695,684)"/>
<path d="M0 0 C1.5631897 0.00785522 1.5631897 0.00785522 3.15795898 0.01586914 C4.28266602 0.0190918 5.40737305 0.02231445 6.56616211 0.02563477 C7.75016602 0.03401367 8.93416992 0.04239258 10.15405273 0.05102539 C11.34192383 0.05553711 12.52979492 0.06004883 13.75366211 0.06469727 C16.69967499 0.07652864 19.64558954 0.09301252 22.59155273 0.11352539 C22.59155273 0.44352539 22.59155273 0.77352539 22.59155273 1.11352539 C21.97111084 1.13334473 21.35066895 1.15316406 20.71142578 1.17358398 C17.90020736 1.26884384 15.08973107 1.37851841 12.27905273 1.48852539 C10.81435547 1.53493164 10.81435547 1.53493164 9.32006836 1.58227539 C7.91337891 1.6402832 7.91337891 1.6402832 6.47827148 1.69946289 C5.61419678 1.73088379 4.75012207 1.76230469 3.85986328 1.79467773 C1.31412829 1.98540576 1.31412829 1.98540576 -1.40844727 4.11352539 C-2.6007734 6.16356494 -2.6007734 6.16356494 -3.40844727 8.11352539 C-4.06844727 8.11352539 -4.72844727 8.11352539 -5.40844727 8.11352539 C-3.23728408 0.15259373 -3.23728408 0.15259373 0 0 Z " fill="#354A51" transform="translate(653.408447265625,650.886474609375)"/>
<path d="M0 0 C2 1 2 1 2.8515625 2.8984375 C4.83309617 9.24334834 7.14257951 17.71484097 4 24 C3.34 24 2.68 24 2 24 C2.03480469 22.92621094 2.06960938 21.85242188 2.10546875 20.74609375 C2.13362918 19.30991161 2.16092691 17.87371238 2.1875 16.4375 C2.21263672 15.73302734 2.23777344 15.02855469 2.26367188 14.30273438 C2.33532304 9.11996685 1.32172598 5.63735818 -1 1 C-0.67 0.67 -0.34 0.34 0 0 Z " fill="#22454E" transform="translate(802,621)"/>
<path d="M0 0 C-3.082198 1.79033573 -5.30193186 2.24789235 -8.8515625 2.23046875 C-10.25341797 2.22756836 -10.25341797 2.22756836 -11.68359375 2.22460938 C-12.65425781 2.21236328 -13.62492187 2.20011719 -14.625 2.1875 C-16.04619141 2.1865332 -16.04619141 2.1865332 -17.49609375 2.18554688 C-23.71596657 2.14725764 -29.82424725 1.73295946 -36 1 C-36 0.67 -36 0.34 -36 0 C-31.51618182 -0.16797178 -27.03217687 -0.32849276 -22.54785156 -0.48217773 C-21.02303937 -0.53547812 -19.49829635 -0.59079772 -17.97363281 -0.64819336 C-15.77944855 -0.73043951 -13.58511635 -0.80537075 -11.390625 -0.87890625 C-10.7113092 -0.90594131 -10.03199341 -0.93297638 -9.33209229 -0.96083069 C-6.04687715 -1.06392959 -3.13890215 -1.03583771 0 0 Z " fill="#1C212E" transform="translate(250,662)"/>
<path d="M0 0 C0.99 0 1.98 0 3 0 C3 4.29 3 8.58 3 13 C2.01 13 1.02 13 0 13 C0 8.71 0 4.42 0 0 Z " fill="#1B6D73" transform="translate(973,970)"/>
<path d="M0 0 C0.94746094 0.24105469 1.89492188 0.48210938 2.87109375 0.73046875 C5.87775559 1.93924282 7.44477865 3.39439265 9.5625 5.8125 C6.5625 5.8125 6.5625 5.8125 4.5 4.375 C0.32756172 2.15561793 -3.77460684 2.07507068 -8.4375 1.8125 C-8.4375 1.1525 -8.4375 0.4925 -8.4375 -0.1875 C-4.91307538 -1.36230821 -3.5386711 -0.94588631 0 0 Z " fill="#2E4D54" transform="translate(652.4375,682.1875)"/>
<path d="M0 0 C1.32 0.33 2.64 0.66 4 1 C3.67 1.33 3.34 1.66 3 2 C2.92851801 3.35243917 2.91600546 4.70834367 2.9375 6.0625 C2.958125 7.361875 2.97875 8.66125 3 10 C4.65 10.33 6.3 10.66 8 11 C8 11.33 8 11.66 8 12 C5.36 12 2.72 12 0 12 C0 8.04 0 4.08 0 0 Z " fill="#242934" transform="translate(280,641)"/>
<path d="M0 0 C0.66 0.33 1.32 0.66 2 1 C1.45730469 1.39832031 0.91460937 1.79664063 0.35546875 2.20703125 C-0.71767578 3.00173828 -0.71767578 3.00173828 -1.8125 3.8125 C-2.87404297 4.59560547 -2.87404297 4.59560547 -3.95703125 5.39453125 C-5.78531393 6.83128877 -7.39896688 8.31815763 -9 10 C-8.09924838 6.31510701 -7.62903935 4.45605353 -4.5 2.1875 C-3.675 1.795625 -2.85 1.40375 -2 1 C-1.34 0.67 -0.68 0.34 0 0 Z " fill="#242A32" transform="translate(439,442)"/>
<path d="M0 0 C0.68359375 1.734375 0.68359375 1.734375 1 4 C-0.21484375 6.140625 -0.21484375 6.140625 -1.9375 8.25 C-2.50339844 8.95640625 -3.06929687 9.6628125 -3.65234375 10.390625 C-4.31943359 11.18726563 -4.31943359 11.18726563 -5 12 C-5.66 11.34 -6.32 10.68 -7 10 C-6.21625 9.0925 -5.4325 8.185 -4.625 7.25 C-2.69947504 4.94809764 -1.17794259 2.78422793 0 0 Z " fill="#284C54" transform="translate(803,646)"/>
<path d="M0 0 C0.99 0.99 1.98 1.98 3 3 C2.72265625 4.828125 2.72265625 4.828125 2 7 C1.78351622 8.91360971 1.59743032 10.83083621 1.4375 12.75 C1.35371094 13.73484375 1.26992188 14.7196875 1.18359375 15.734375 C1.12300781 16.48203125 1.06242188 17.2296875 1 18 C0.67 18 0.34 18 0 18 C0 12.06 0 6.12 0 0 Z " fill="#2B4349" transform="translate(681,695)"/>
<path d="M0 0 C0.33 0.99 0.66 1.98 1 3 C3.64 3 6.28 3 9 3 C8.67 3.66 8.34 4.32 8 5 C5.03 5 2.06 5 -1 5 C-0.67 3.35 -0.34 1.7 0 0 Z " fill="#324049" transform="translate(440,696)"/>
<path d="M0 0 C2.64 0 5.28 0 8 0 C8 0.99 8 1.98 8 3 C5.6875 3.625 5.6875 3.625 3 4 C2.01 3.34 1.02 2.68 0 2 C0 1.34 0 0.68 0 0 Z " fill="#3D545E" transform="translate(528,714)"/>
<path d="M0 0 C0.66 0.33 1.32 0.66 2 1 C1.67 2.32 1.34 3.64 1 5 C4.3 5 7.6 5 11 5 C11 5.33 11 5.66 11 6 C7.37 6 3.74 6 0 6 C-1 2 -1 2 0 0 Z " fill="#233E47" transform="translate(636,657)"/>
<path d="M0 0 C1.65 0 3.3 0 5 0 C4.319375 0.61875 4.319375 0.61875 3.625 1.25 C1.94049626 3.06408095 1.00734029 4.75285627 0 7 C-0.66 7 -1.32 7 -2 7 C-1.34 4.69 -0.68 2.38 0 0 Z " fill="#2C454E" transform="translate(650,652)"/>
<path d="M0 0 C0.66 0 1.32 0 2 0 C1.67 1.32 1.34 2.64 1 4 C-2.3 4 -5.6 4 -9 4 C-8.67 3.34 -8.34 2.68 -8 2 C-5.69 2.33 -3.38 2.66 -1 3 C-0.67 2.01 -0.34 1.02 0 0 Z " fill="#D4E5E8" transform="translate(646,658)"/>
<path d="M0 0 C0.33 0 0.66 0 1 0 C1.19477739 1.62414378 1.38059458 3.24936423 1.5625 4.875 C1.66691406 5.77992188 1.77132812 6.68484375 1.87890625 7.6171875 C2 10 2 10 1 12 C0.34 12 -0.32 12 -1 12 C-0.67 8.04 -0.34 4.08 0 0 Z " fill="#3C5C64" transform="translate(805,633)"/>
</svg>
